<mxfile host="65bd71144e">
    <diagram id="uBHZAnCBtmho5GwXvUL6" name="ページ1">
        <mxGraphModel dx="1037" dy="539" grid="1" gridSize="10" guides="1" tooltips="1" connect="1" arrows="1" fold="1" page="1" pageScale="1" pageWidth="827" pageHeight="1169" math="0" shadow="0">
            <root>
                <mxCell id="0"/>
                <mxCell id="1" parent="0"/>
                <mxCell id="2" value="" style="whiteSpace=wrap;html=1;" vertex="1" parent="1">
                    <mxGeometry x="20" y="110" width="600" height="420" as="geometry"/>
                </mxCell>
                <mxCell id="3" value="server" style="whiteSpace=wrap;html=1;aspect=fixed;" vertex="1" parent="1">
                    <mxGeometry x="720" y="230" width="80" height="80" as="geometry"/>
                </mxCell>
                <mxCell id="6" value="" style="group" vertex="1" connectable="0" parent="1">
                    <mxGeometry x="480" y="150" width="110" height="330" as="geometry"/>
                </mxCell>
                <mxCell id="4" value="service" style="whiteSpace=wrap;html=1;imageAspect=1;verticalAlign=top;" vertex="1" parent="6">
                    <mxGeometry width="110" height="330" as="geometry"/>
                </mxCell>
                <mxCell id="5" value="backend-service.ts" style="whiteSpace=wrap;html=1;aspect=fixed;" vertex="1" parent="6">
                    <mxGeometry x="15" y="80" width="80" height="80" as="geometry"/>
                </mxCell>
                <mxCell id="7" value="" style="group" vertex="1" connectable="0" parent="1">
                    <mxGeometry x="289" y="150" width="110" height="330" as="geometry"/>
                </mxCell>
                <mxCell id="15" value="" style="group" vertex="1" connectable="0" parent="7">
                    <mxGeometry width="110" height="330" as="geometry"/>
                </mxCell>
                <mxCell id="8" value="provider" style="whiteSpace=wrap;html=1;imageAspect=1;verticalAlign=top;" vertex="1" parent="15">
                    <mxGeometry width="110" height="330" as="geometry"/>
                </mxCell>
                <mxCell id="9" value="A provider.tsx" style="whiteSpace=wrap;html=1;" vertex="1" parent="15">
                    <mxGeometry x="15" y="60" width="80" height="40" as="geometry"/>
                </mxCell>
                <mxCell id="14" value="C provider.tsx" style="whiteSpace=wrap;html=1;" vertex="1" parent="15">
                    <mxGeometry x="15" y="190" width="80" height="40" as="geometry"/>
                </mxCell>
                <mxCell id="13" value="B provider.tsx" style="whiteSpace=wrap;html=1;" vertex="1" parent="15">
                    <mxGeometry x="15" y="120" width="80" height="40" as="geometry"/>
                </mxCell>
                <mxCell id="16" value="" style="group" vertex="1" connectable="0" parent="1">
                    <mxGeometry x="90" y="150" width="110" height="330" as="geometry"/>
                </mxCell>
                <mxCell id="17" value="component" style="whiteSpace=wrap;html=1;imageAspect=1;verticalAlign=top;" vertex="1" parent="16">
                    <mxGeometry width="110" height="330" as="geometry"/>
                </mxCell>
                <mxCell id="18" value="A component.tsx" style="whiteSpace=wrap;html=1;" vertex="1" parent="16">
                    <mxGeometry x="7.5" y="60" width="95" height="40" as="geometry"/>
                </mxCell>
                <mxCell id="22" value="C component.tsx" style="whiteSpace=wrap;html=1;" vertex="1" parent="16">
                    <mxGeometry x="7.5" y="190" width="95" height="40" as="geometry"/>
                </mxCell>
                <mxCell id="21" value="B component.tsx" style="whiteSpace=wrap;html=1;" vertex="1" parent="16">
                    <mxGeometry x="7.5" y="120" width="95" height="40" as="geometry"/>
                </mxCell>
                <mxCell id="24" value="" style="endArrow=classic;startArrow=classic;html=1;entryX=0;entryY=0.5;entryDx=0;entryDy=0;exitX=1;exitY=0.5;exitDx=0;exitDy=0;" edge="1" parent="1" source="5" target="3">
                    <mxGeometry width="50" height="50" relative="1" as="geometry">
                        <mxPoint x="390" y="300" as="sourcePoint"/>
                        <mxPoint x="440" y="250" as="targetPoint"/>
                    </mxGeometry>
                </mxCell>
                <mxCell id="25" value="" style="endArrow=classic;startArrow=classic;html=1;entryX=0;entryY=0.5;entryDx=0;entryDy=0;exitX=1;exitY=0.5;exitDx=0;exitDy=0;" edge="1" parent="1" source="9" target="5">
                    <mxGeometry width="50" height="50" relative="1" as="geometry">
                        <mxPoint x="585" y="280" as="sourcePoint"/>
                        <mxPoint x="730" y="280" as="targetPoint"/>
                    </mxGeometry>
                </mxCell>
                <mxCell id="26" value="" style="endArrow=classic;startArrow=classic;html=1;entryX=0;entryY=0.5;entryDx=0;entryDy=0;exitX=1;exitY=0.5;exitDx=0;exitDy=0;" edge="1" parent="1" source="13" target="5">
                    <mxGeometry width="50" height="50" relative="1" as="geometry">
                        <mxPoint x="394" y="240" as="sourcePoint"/>
                        <mxPoint x="505" y="280" as="targetPoint"/>
                    </mxGeometry>
                </mxCell>
                <mxCell id="27" value="" style="endArrow=classic;startArrow=classic;html=1;entryX=0;entryY=0.5;entryDx=0;entryDy=0;exitX=1;exitY=0.5;exitDx=0;exitDy=0;" edge="1" parent="1" source="14" target="5">
                    <mxGeometry width="50" height="50" relative="1" as="geometry">
                        <mxPoint x="394" y="300" as="sourcePoint"/>
                        <mxPoint x="505" y="280" as="targetPoint"/>
                    </mxGeometry>
                </mxCell>
                <mxCell id="28" value="" style="endArrow=classic;startArrow=classic;html=1;entryX=0;entryY=0.5;entryDx=0;entryDy=0;exitX=1;exitY=0.5;exitDx=0;exitDy=0;" edge="1" parent="1" source="18" target="9">
                    <mxGeometry width="50" height="50" relative="1" as="geometry">
                        <mxPoint x="394" y="300" as="sourcePoint"/>
                        <mxPoint x="505" y="280" as="targetPoint"/>
                    </mxGeometry>
                </mxCell>
                <mxCell id="29" value="" style="endArrow=classic;startArrow=classic;html=1;entryX=0;entryY=0.5;entryDx=0;entryDy=0;exitX=1;exitY=0.5;exitDx=0;exitDy=0;" edge="1" parent="1" source="21" target="13">
                    <mxGeometry width="50" height="50" relative="1" as="geometry">
                        <mxPoint x="202.5" y="240" as="sourcePoint"/>
                        <mxPoint x="314" y="240" as="targetPoint"/>
                    </mxGeometry>
                </mxCell>
                <mxCell id="30" value="" style="endArrow=classic;startArrow=classic;html=1;entryX=0;entryY=0.5;entryDx=0;entryDy=0;exitX=1;exitY=0.5;exitDx=0;exitDy=0;" edge="1" parent="1" source="22" target="14">
                    <mxGeometry width="50" height="50" relative="1" as="geometry">
                        <mxPoint x="202.5" y="300" as="sourcePoint"/>
                        <mxPoint x="314" y="300" as="targetPoint"/>
                    </mxGeometry>
                </mxCell>
            </root>
        </mxGraphModel>
    </diagram>
</mxfile>